<?xml version="1.0" ?><!DOCTYPE svg  PUBLIC '-//W3C//DTD SVG 1.1//EN'  'http://www.w3.org/Graphics/SVG/1.1/DTD/svg11.dtd'><svg height="512px" style="enable-background:new 0 0 512 512;" version="1.1" viewBox="0 0 512 512" width="512px" xml:space="preserve" xmlns="http://www.w3.org/2000/svg" xmlns:xlink="http://www.w3.org/1999/xlink"><g id="C_-_33_x2C__audit_x2C__Accounting_x2C__banking_x2C__budget_x2C__business_x2C__calculation_x2C__financial_x2C__report"><g><rect height="52.846" style="fill-rule:evenodd;clip-rule:evenodd;" width="26.549" x="179.857" y="332.189"/><path d="M45.154,407.963c0,7.264,5.947,13.174,13.256,13.174    c0.258,0,0.511-0.023,0.766-0.038c0.205-0.013,0.412-0.014,0.614-0.034c0.228-0.023,0.448-0.066,0.672-0.102    c0.215-0.034,0.433-0.058,0.645-0.101c0.177-0.037,0.346-0.091,0.52-0.134c0.252-0.063,0.507-0.119,0.754-0.196    c0.103-0.031,0.2-0.075,0.302-0.109c0.311-0.106,0.621-0.212,0.921-0.341c0.014-0.005,0.027-0.014,0.041-0.019    c4.321-1.855,7.466-5.93,7.961-10.761c0.045-0.44,0.068-0.889,0.068-1.34v-53.644V99.68h-26.52V407.963z" style="fill-rule:evenodd;clip-rule:evenodd;"/><rect height="115.411" style="fill-rule:evenodd;clip-rule:evenodd;" width="26.549" x="116.993" y="269.624"/><rect height="106.471" style="fill-rule:evenodd;clip-rule:evenodd;" width="26.55" x="242.722" y="278.564"/><polygon points="386.479,52.763 386.479,90.433 424.328,90.433   " style="fill-rule:evenodd;clip-rule:evenodd;"/><path d="M430.94,99.804h-49.146c-2.588,0-4.685-2.098-4.685-4.686V46.174H81.045    l0.05,308.145c0,0.233-0.018,0.464-0.051,0.691v52.953c0,0.55-0.027,1.094-0.066,1.634c-0.008,0.114-0.016,0.228-0.026,0.342    c-0.047,0.532-0.109,1.061-0.193,1.583c-0.009,0.056-0.021,0.111-0.03,0.167c-0.085,0.507-0.188,1.007-0.306,1.5    c-0.014,0.062-0.027,0.123-0.042,0.184c-0.132,0.53-0.284,1.054-0.453,1.57c-0.016,0.047-0.032,0.094-0.048,0.142    c-0.358,1.068-0.794,2.101-1.301,3.091c-0.01,0.019-0.02,0.037-0.029,0.057c-0.524,1.016-1.123,1.985-1.79,2.905h219.462V220.249    c0-2.588,2.099-4.686,4.686-4.686H430.94V99.804z M112.307,153.433h156.928c2.587,0,4.685,2.098,4.685,4.686    s-2.098,4.686-4.685,4.686H112.307c-2.587,0-4.686-2.098-4.686-4.686S109.72,153.433,112.307,153.433z M107.622,126.614    c0-2.588,2.098-4.686,4.686-4.686h156.928c2.587,0,4.685,2.098,4.685,4.686c0,2.588-2.098,4.686-4.685,4.686H112.307    C109.72,131.299,107.622,129.202,107.622,126.614z M112.307,184.934h156.928c2.587,0,4.685,2.098,4.685,4.686    s-2.098,4.686-4.685,4.686H112.307c-2.587,0-4.686-2.098-4.686-4.686S109.72,184.934,112.307,184.934z M152.913,389.72    c0,2.589-2.098,4.686-4.686,4.686h-35.92c-2.587,0-4.686-2.097-4.686-4.686V264.938c0-2.589,2.098-4.686,4.686-4.686h35.92    c2.587,0,4.686,2.097,4.686,4.686V389.72z M215.777,389.72c0,2.589-2.098,4.686-4.686,4.686h-35.92    c-2.587,0-4.686-2.097-4.686-4.686v-62.216c0-2.588,2.098-4.686,4.686-4.686h35.92c2.587,0,4.686,2.098,4.686,4.686V389.72z     M278.642,389.72c0,2.589-2.098,4.686-4.686,4.686h-35.92c-2.587,0-4.685-2.097-4.685-4.686V273.879    c0-2.588,2.098-4.686,4.685-4.686h35.92c2.588,0,4.686,2.098,4.686,4.686V389.72z M336.813,99.804H112.307    c-2.587,0-4.686-2.098-4.686-4.686s2.098-4.686,4.686-4.686h224.506c2.588,0,4.686,2.098,4.686,4.686    S339.401,99.804,336.813,99.804z" style="fill-rule:evenodd;clip-rule:evenodd;"/><path d="M435.626,224.934H305.595v240.892h161.252V224.934H435.626z     M354.793,443.621h-17.936v-17.851h17.936V443.621z M354.793,407.896h-17.936v-17.853h17.936V407.896z M354.793,372.168h-17.936    v-17.849h17.936V372.168z M354.793,336.443h-17.936v-17.854h17.936V336.443z M381.708,443.621h-17.935v-17.851h17.935V443.621z     M381.708,407.896h-17.935v-17.853h17.935V407.896z M381.708,372.168h-17.935v-17.849h17.935V372.168z M381.708,336.443h-17.935    v-17.854h17.935V336.443z M408.624,443.621h-17.935v-17.851h17.935V443.621z M408.624,407.896h-17.935v-17.853h17.935V407.896z     M408.624,372.168h-17.935v-17.849h17.935V372.168z M408.624,336.443h-17.935v-17.854h17.935V336.443z M435.54,443.621h-17.935    v-17.851h17.935V443.621z M435.54,407.896h-17.935v-17.853h17.935V407.896z M435.54,372.168h-17.935v-17.849h17.935V372.168z     M435.54,336.443h-17.935v-17.854h17.935V336.443z M449.279,291.753c0,2.589-2.098,4.686-4.686,4.686H327.853    c-2.588,0-4.686-2.097-4.686-4.686v-44.689c0-2.588,2.098-4.685,4.686-4.685h116.741c2.588,0,4.686,2.097,4.686,4.685V291.753z" style="fill-rule:evenodd;clip-rule:evenodd;"/><rect height="35.319" style="fill-rule:evenodd;clip-rule:evenodd;" width="107.37" x="332.538" y="251.749"/></g></g><g id="Layer_1"/></svg>