<?xml version="1.0" ?><!DOCTYPE svg  PUBLIC '-//W3C//DTD SVG 1.1//EN'  'http://www.w3.org/Graphics/SVG/1.1/DTD/svg11.dtd'><svg xmlns="http://www.w3.org/2000/svg" xmlns:xlink="http://www.w3.org/1999/xlink" xml:space="preserve" width="512px" height="512px" style="shape-rendering:geometricPrecision; text-rendering:geometricPrecision; image-rendering:optimizeQuality; fill-rule:evenodd; clip-rule:evenodd" viewBox="0 0 512 512"><defs><style type="text/css">
   <![CDATA[
    .fil0 {fill:black}
   ]]>
  </style></defs><g id="Layer_x0020_1"><path class="fil0" d="M73.1046 511.995c-19.5001,0 -37.9005,-7.60042 -51.7006,-21.4005 -13.7989,-13.8 -21.3993,-32.1993 -21.3993,-51.6994 0,-19.5001 7.60042,-37.9005 21.4005,-51.7006 15.6,-15.6 37.6005,-23.2997 59.4002,-21.0001l285.398 -285.399c-2.29961,-21.7997 5.40002,-43.8001 21.0001,-59.4002 16.3004,-16.3004 39.6001,-24.0001 62.4002,-20.5997 2.2004,0.300001 4.09962,1.9004 4.80001,4.09962 0.700396,2.2004 0.100394,4.50001 -1.5,6.10041l-32.2997 32.2997 48.0001 48.0001 32.4001 -32.2997c1.6004,-1.6004 4.00041,-2.2004 6.10041,-1.5 2.2004,0.700396 3.70041,2.59961 4.09962,4.80001 3.4004,22.8001 -4.30041,46.2001 -20.5997,62.4002 -15.6,15.6 -37.6005,23.2997 -59.4002,21.0001l-285.399 285.499c2.29961,21.7997 -5.40002,43.8001 -21.0001,59.4002 -13.8,13.7989 -32.2005,21.3993 -51.7006,21.3993zm88.8003 -155.9c-1.5,0 -3.1004,-0.600002 -4.20001,-1.80001 -2.29961,-2.29961 -2.29961,-6.10041 0,-8.50042l188.199 -188.199c2.29961,-2.29961 6.10041,-2.29961 8.50042,0 2.29961,2.29961 2.29961,6.10041 0,8.50042l-188.299 188.299c-1.09961,1.09961 -2.70001,1.69961 -4.20001,1.69961zm-88.8003 130.6c-1.09961,0 -2.10001,-0.300001 -3.1004,-0.799609 -2.5004,-1.5 -5.50041,-2.70001 -8.59963,-3.60001 -3.1004,-0.799609 -6.19963,-1.2 -9.19963,-1.2 -2.2004,0 -4.30041,-1.09961 -5.29962,-3.1004 -1.5,-2.59961 -3.30001,-5.10002 -5.59962,-7.39963 -2.29961,-2.29961 -4.80001,-4.20001 -7.39963,-5.59962 -1.9004,-1.09961 -3.1004,-3.1004 -3.1004,-5.29962 0,-3.00001 -0.400395,-6.10041 -1.2,-9.19963 -0.799609,-3.1004 -1.99961,-6.00002 -3.60001,-8.59963 -1.09961,-1.9004 -1.09961,-4.30041 0,-6.19963 1.5,-2.59961 2.70001,-5.40002 3.60001,-8.50042 0.799609,-3.1004 1.2,-6.19963 1.2,-9.19963 0,-2.2004 1.09961,-4.30041 3.1004,-5.29962 2.59961,-1.39961 5.10002,-3.30001 7.39963,-5.59962 2.29961,-2.29961 4.20001,-4.80001 5.59962,-7.39963 1.09961,-1.9004 3.1004,-3.1004 5.20041,-3.1004 0,0 0.100394,0 0.100394,0 3.00001,0 6.10041,-0.400395 9.19963,-1.2 3.1004,-0.799609 6.00002,-1.99961 8.59963,-3.60001 1.9004,-1.09961 4.30041,-1.09961 6.19963,0 2.59961,1.5 5.40002,2.70001 8.59963,3.60001 3.1004,0.799609 6.19963,1.2 9.19963,1.2 2.2004,-0.100394 4.30041,1.09961 5.29962,3.1004 1.39961,2.59961 3.30001,5.10002 5.59962,7.39963 2.29961,2.29961 4.80001,4.20001 7.39963,5.59962 1.9004,1.09961 3.1004,3.1004 3.1004,5.29962 0,3.00001 0.400395,6.10041 1.2,9.19963 0.799609,3.1004 1.99961,6.00002 3.60001,8.59963 1.09961,1.9004 1.09961,4.30041 0,6.19963 -1.5,2.5004 -2.70001,5.50041 -3.60001,8.59963 -0.799609,3.1004 -1.2,6.19963 -1.2,9.19963 0,2.2004 -1.09961,4.30041 -3.1004,5.29962 -2.59961,1.5 -5.10002,3.30001 -7.39963,5.59962 -2.29961,2.29961 -4.20001,4.80001 -5.59962,7.39963 -1.09961,1.9004 -3.1004,3.1004 -5.20041,3.1004 0,0 -0.100394,0 -0.100394,0 -3.00001,0 -6.10041,0.400395 -9.19963,1.2 -3.1004,0.799609 -6.00002,1.99961 -8.59963,3.60001 -0.999216,0.400395 -1.99961,0.700396 -3.09922,0.700396zm-17.4993 -17.4993c3.00001,0.199607 6.00002,0.700396 9.00003,1.5 3.00001,0.799609 5.89962,1.9004 8.50042,3.19962 2.70001,-1.3004 5.50041,-2.40001 8.50042,-3.19962 3.00001,-0.799609 6.00002,-1.3004 9.00003,-1.5 1.69961,-2.5004 3.60001,-4.80001 5.80041,-7.00042 2.2004,-2.2004 4.50001,-4.09962 7.00042,-5.80041 0.199607,-3.00001 0.700396,-6.00002 1.5,-9.00003 0.799609,-3.00001 1.9004,-5.89962 3.19962,-8.50042 -1.3004,-2.70001 -2.40001,-5.50041 -3.19962,-8.50042 -0.799609,-3.00001 -1.3004,-6.00002 -1.5,-9.00003 -2.5004,-1.69961 -4.80001,-3.60001 -7.00042,-5.80041 -2.2004,-2.2004 -4.09962,-4.60041 -5.80041,-7.00042 -3.00001,-0.199607 -6.00002,-0.700396 -9.00003,-1.5 -3.00001,-0.799609 -5.89962,-1.9004 -8.50042,-3.19962 -2.70001,1.3004 -5.50041,2.40001 -8.50042,3.19962 -3.00001,0.799609 -6.00002,1.3004 -9.00003,1.5 -1.69961,2.5004 -3.60001,4.80001 -5.80041,7.00042 -2.2004,2.2004 -4.60041,4.09962 -7.00042,5.80041 -0.199607,3.00001 -0.700396,6.00002 -1.5,9.00003 -0.799609,3.00001 -1.9004,5.80041 -3.19962,8.50042 1.3004,2.70001 2.40001,5.50041 3.19962,8.50042 0.799609,3.00001 1.3004,6.00002 1.5,9.00003 2.5004,1.69961 4.80001,3.60001 7.00042,5.80041 2.2004,2.2004 4.20001,4.50001 5.80041,7.00042z"/></g></svg>