<?xml version="1.0" ?><svg viewBox="0 0 512 512" xmlns="http://www.w3.org/2000/svg"><g id="a"/><g id="b"/><g id="c"><g><path d="M491.95996,335.43457l-5.38379-37.68555c-1.81543-12.70898-10.34814-23.56641-22.26807-28.33398l-20.30811-8.12305v-19.63477l.42041-.42041c3.14758,7.19238,10.31952,12.07861,18.44043,12.07861,11.10498,0,20.13916-9.03418,20.13916-20.13867,0-3.83789-1.08252-7.54492-3.09668-10.73535,2.63379-3.45898,4.09668-7.71875,4.09668-12.12598,0-6.78223-3.44922-13.00586-8.92871-16.65723,1.46924-3.02051,2.23193-6.33496,2.23193-9.78223,0-12.37305-10.06592-22.43848-22.43896-22.43848-2.31152,0-4.59961,.35645-6.78174,1.04688-3.56104-8.62207-12.03418-14.48438-21.69482-14.48438-8.71729,0-16.64209,4.89648-20.67578,12.35938-3.03369-1.3457-6.32324-2.04395-9.71191-2.04395-13.23389,0-24,10.7666-24,24,0,3.62402,.83203,7.20312,2.39258,10.44043-6.30713,3.42871-10.39258,10.06641-10.39258,17.55957,0,4.69922,1.65381,9.21289,4.61572,12.7793-1.0625,2.55664-1.61572,5.31055-1.61572,8.10938,0,11.64062,9.47021,21.11133,21.11084,21.11133,6.16602,0,11.88586-2.64307,15.86914-7.19971v16.17627l-20.30811,8.12305c-9.49072,3.7959-16.82056,11.45874-20.33582,20.83667-22.83215-35.06445-62.37366-58.25171-107.33606-58.25171-43.07159,0-81.17419,21.27393-104.37384,53.88745-4.37067-8.05542-11.51947-14.06812-20.24237-16.97632l-23.38379-7.79395v-15.20068c9.64056-6.46582,16-17.46143,16-29.9165v-22.34326l14.82861-14.82861c.84717-.84668,1.27002-2.0293,1.15186-3.22266-.11816-1.19238-.76465-2.26855-1.76172-2.93359l-27.59863-18.39941c-13.74072-9.16016-31.49854-9.16016-45.24023,0l-27.59863,18.39941c-.99707,.66504-1.64355,1.74121-1.76172,2.93359-.11816,1.19336,.30469,2.37598,1.15186,3.22266l14.82861,14.82861v22.34326c0,12.45508,6.35944,23.45068,16,29.9165v15.20068l-23.38428,7.79395c-14.72363,4.90918-24.61572,18.63379-24.61572,34.15332v32.93555h8v-32.93555c0-7.90894,3.31848-15.20459,8.81769-20.37891l24.96356,16.64258c.67676,.45117,1.44922,.67188,2.21729,.67188,1.03271,0,2.05664-.39844,2.83008-1.17188l21.17139-21.1709,21.17139,21.1709c1.34863,1.34863,3.46094,1.55762,5.04736,.5l24.98364-16.65576c2.31854,2.18579,4.26837,4.77637,5.75513,7.69678l.00623-.00317c.52802,1.04224,1.04102,2.23218,1.42767,3.49756-11.67169,19.302-18.39142,41.93408-18.39142,66.13647,0,70.69238,57.30756,128,128,128s128-57.30762,128-128c0-18.32178-3.8576-35.73975-10.79181-51.49878,14.63214,2.3894,26.6438,13.0896,30.64844,27.49878h8.22253l.74408-3.7207c4.39355-21.96777,16.44775-41.77344,33.94141-55.76855l4.58057-3.66479,9.99219,3.99683c2.54669,1.01855,4.88525,2.40527,6.98065,4.07056-20.7207,11.13647-35.58911,31.04688-40.24042,54.30249l-.16168,.78418h32.08405c0-12.50879,8.41254-23.4292,20.12048-26.87085l3.91956,27.43628,7.91992-1.13086ZM100,262.23462c-3.35498,2.83789-7.55542,4.39331-12,4.39331s-8.64502-1.55542-12-4.39331v-12.29883c3.75586,1.33203,7.79321,2.06421,12,2.06421s8.24414-.73218,12-2.06421v12.29883Zm-12-18.23462c-15.43945,0-28-12.56055-28-28v-20.83691c18.38379-4.11914,37.61621-4.11914,56,0v20.83691c0,15.43945-12.56055,28-28,28Zm72,116c0-47.56787,34.59631-87.05518,79.99951-94.67261l.00049,78.67261-65.9801,65.979c-8.89441-14.55811-14.0199-31.66992-14.0199-49.979Zm36.58929,75.41309l43.41071-43.41309,.00964,62.67432c-16.21191-2.71826-31.04633-9.49951-43.42035-19.26123Zm239.41071-173.17847c-3.35498,2.83789-7.55542,4.39331-12,4.39331-4.45361,0-8.66174-1.5625-12.02002-4.41162v-13.54492c3.59174,2.16919,7.71655,3.32861,12.02002,3.32861,4.29541,0,8.41315-1.15454,12-3.31567v13.55029Zm-32-52.93677c0-8.62207,5.49561-16.24609,13.67529-18.97266h.00049c2.03906-.68066,4.18164-1.02051,6.32422-1.02051s4.28516,.34082,6.32471,1.02051c8.17969,2.72656,13.67529,10.35059,13.67529,18.97266v14.70215c0,4.09082-1.59277,7.93652-4.48486,10.82812l-4.68701,4.68652c-2.89258,2.89258-6.73779,4.48535-10.82812,4.48535s-7.93555-1.59277-10.82861-4.48633l-4.68604-4.68457c-2.89258-2.89258-4.48535-6.73828-4.48535-10.8291v-14.70215Zm-131.99969,245.37476l-.00031-62.67261,43.41125,43.4126c-12.37158,9.76001-27.2027,16.54077-43.41095,19.26001Zm65.97992-44.6936l-65.98022-65.979-.01654-78.67554c45.41156,7.6106,80.01654,47.10181,80.01654,94.67554,0,18.30884-5.12543,35.4209-14.01978,49.979Zm32.97778-109.81201l-1.79639-.15234,.16211-1.13477c1.11609-7.8125,5.50421-14.7146,11.86847-19.10034l12.17059,7.30249c8.87439,5.32471,15.23145,14.06958,17.60144,24.11426-1.58044,3.78687-2.94379,7.67236-4.06848,11.64111-7.46179-12.71533-20.73071-21.37646-35.93774-22.67041Z"/><path d="M200.53662,96.11133c1.9585,4.89746,1.72949,10.41211-.62939,15.12988-7.83252,15.66602-9.80713,33.65039-5.55908,50.64258l.55536,2.22144c-4.99811,4.95923-8.46802,11.3208-9.8952,18.45728l-4.93066,24.65332,7.84473,1.56836,4.93066-24.65332c1.70654-8.5332,7.1499-15.66016,14.93457-19.55176l15.10919-7.55469,29.97968,37.47461c.75928,.94824,1.9082,1.50098,3.12354,1.50098s2.36426-.55273,3.12354-1.50098l29.9798-37.47461,15.10956,7.55469c7.78418,3.8916,13.22754,11.01855,14.93408,19.55176l4.93066,24.65332,7.84473-1.56836-4.93066-24.65332c-1.42719-7.13672-4.89709-13.49829-9.89514-18.45752l.5553-2.22119c4.24805-16.99219,2.27344-34.97656-5.55908-50.64258-2.35889-4.71777-2.58789-10.23242-.62939-15.12988,3.51758-8.79395,3.06201-18.6748-1.25-27.1084-2.46246-4.81567-6.04694-8.88379-10.37744-11.91943,.09821-.34741,.16406-.70776,.16406-1.0835,0-19.85059-16.14941-36-36-36h-16c-19.85059,0-36,16.14941-36,36,0,.37573,.06586,.73608,.16406,1.0835-4.33051,3.03564-7.91498,7.10376-10.37744,11.91943-4.31201,8.43359-4.76758,18.31445-1.25,27.1084Zm46.51855,31.8877c2.80078,1.40137,5.87256,2.10156,8.94482,2.10156,3.07178,0,6.14404-.7002,8.94385-2.10059l3.05615-1.52759v15.87085l-12,11.99951-12-11.99951v-15.87134l3.05518,1.5271Zm-19.05518-65.53613c9.29468,1.77832,18.64551,2.67773,28,2.67773,9.35272,0,18.70746-.89941,28-2.67773v17.53711c0,4.5752-2.5415,8.6875-6.63379,10.73242l-16.00049,8.00098c-3.35889,1.67969-7.37109,1.68066-10.73193-.00098l-16.00049-8c-4.0918-2.04492-6.6333-6.15723-6.6333-10.73242v-17.53711Zm76.03564,30.67773c-2.80664,7.01758-2.47803,14.91895,.90185,21.67871,6.79389,13.58765,8.62537,29.1333,5.22724,43.91602-.77344-.46094-1.55994-.90527-2.37421-1.3125l-31.79053-15.89453v-19.33691c9.95349-6.48462,16-17.46973,16-29.56641v-30.91895c4.73499,2.33936,8.64368,6.15356,11.09082,10.93945,3.25977,6.37598,3.60449,13.8457,.94482,20.49512Zm-95.12646-20.49512c2.44714-4.78589,6.35583-8.6001,11.09082-10.93945v30.91895c0,12.09644,6.04633,23.08154,16,29.56616v19.33716l-31.79004,15.89453c-.81439,.40723-1.60107,.85156-2.37469,1.31274-3.39813-14.78296-1.56665-30.32837,5.22723-43.91626,3.37989-6.75977,3.7085-14.66113,.90186-21.67871-2.65967-6.64941-2.31494-14.11914,.94482-20.49512Z"/><path d="M200.9624,34.68652l-1.9248-7.76562c-63.44727,15.72656-118.03369,57.69531-149.7627,115.14551l7.00293,3.86719c30.65625-55.50684,83.3916-96.05566,144.68457-111.24707Z"/><path d="M44.97217,342.48145l-7.40137,3.03711c21.81201,53.16602,62.21826,96.5166,113.77637,122.06641l3.55176-7.16797c-49.81396-24.68555-88.85352-66.56934-109.92676-117.93555Z"/><path d="M455.72217,145.93359l7.00293-3.86719c-31.729-57.4502-86.31543-99.41895-149.7627-115.14551l-1.9248,7.76562c61.29297,15.19141,114.02832,55.74023,144.68457,111.24707Z"/><path d="M357.10205,460.41602l3.55176,7.16797c52.71484-26.12207,93.58057-70.61719,115.06885-125.28711l-7.44531-2.92578c-20.76074,52.81738-60.24365,95.80566-111.17529,121.04492Z"/></g></g><g id="d"/></svg>